<svg id="visual" viewBox="0 0 900 600" width="900" height="600" xmlns="http://www.w3.org/2000/svg" xmlns:xlink="http://www.w3.org/1999/xlink" version="1.1"><rect width="900" height="600" fill="#13252F"></rect><g><g transform="translate(742 500)"><path d="M22.6 -7.7C25.4 1.3 21.1 12.3 12.8 18.5C4.5 24.8 -7.9 26.4 -15.6 21C-23.2 15.5 -26.1 3.1 -22.7 -6.7C-19.3 -16.5 -9.6 -23.6 0.1 -23.6C9.9 -23.6 19.8 -16.6 22.6 -7.7Z" fill="none" stroke="#25323a" stroke-width="5"></path></g><g transform="translate(846 518)"><path d="M18.7 -6C21.2 1.5 17.9 10.8 11.5 15.5C5 20.1 -4.7 19.9 -10.5 15.4C-16.3 11 -18.2 2.2 -15.8 -5.2C-13.4 -12.6 -6.7 -18.6 0.7 -18.8C8.1 -19 16.3 -13.5 18.7 -6Z" stroke="#25323a" fill="none" stroke-width="5"></path></g><g transform="translate(678 338)"><path d="M6.8 -2.2C7.8 0.8 6.9 4.5 4.5 6.2C2.2 7.8 -1.5 7.5 -4 5.6C-6.6 3.8 -8 0.4 -7.1 -2.5C-6.3 -5.4 -3.1 -7.8 -0.1 -7.7C2.9 -7.7 5.8 -5.3 6.8 -2.2Z" stroke="#25323a" fill="none" stroke-width="5"></path></g><g transform="translate(594 61)"><path d="M11.5 -3.8C12.9 0.3 10.4 5.6 6.2 8.7C2 11.7 -3.8 12.5 -7.3 10C-10.8 7.5 -11.9 1.6 -10.3 -2.9C-8.6 -7.3 -4.3 -10.5 0.4 -10.6C5.1 -10.7 10.2 -7.9 11.5 -3.8Z" stroke="#25323a" fill="none" stroke-width="5"></path></g><g transform="translate(538 255)"><path d="M24.6 -8.8C27.5 1.1 22.7 12.8 14.4 18.5C6.2 24.1 -5.4 23.8 -14 17.9C-22.5 12 -27.9 0.6 -25 -9.1C-22.2 -18.9 -11.1 -27 -0.1 -26.9C10.8 -26.9 21.6 -18.7 24.6 -8.8Z" stroke="#25323a" fill="none" stroke-width="5"></path></g><g transform="translate(337 174)"><path d="M14.8 -5.5C16.9 1.7 14.8 9.6 9.2 14C3.6 18.3 -5.5 19.2 -10.8 15.2C-16.1 11.3 -17.6 2.5 -15.2 -5.1C-12.8 -12.7 -6.4 -19.1 0 -19.1C6.3 -19.1 12.7 -12.6 14.8 -5.5Z" stroke="#25323a" fill="none" stroke-width="5"></path></g><g transform="translate(857 429)"><path d="M4.9 -1.6C5.5 0.3 4.6 2.7 3 3.8C1.3 4.9 -1 4.8 -2.7 3.6C-4.5 2.4 -5.5 0.1 -5 -1.8C-4.4 -3.6 -2.2 -5.1 0 -5.1C2.1 -5.1 4.3 -3.6 4.9 -1.6Z" stroke="#25323a" fill="none" stroke-width="5"></path></g><g transform="translate(673 114)"><path d="M12.6 -3.7C14.6 2.3 13.5 9.6 8.7 13.4C4 17.2 -4.4 17.4 -9.4 13.7C-14.4 9.9 -15.9 2.1 -13.8 -3.9C-11.6 -10 -5.8 -14.3 -0.3 -14.2C5.3 -14.1 10.5 -9.6 12.6 -3.7Z" stroke="#25323a" fill="none" stroke-width="5"></path></g><g transform="translate(759 210)"><path d="M12.4 -4.2C13.8 0.4 11.2 6.2 6.7 9.5C2.2 12.8 -4.2 13.7 -8 10.9C-11.8 8.2 -13 1.8 -11.3 -3.3C-9.5 -8.4 -4.7 -12.1 0.4 -12.2C5.5 -12.3 10.9 -8.8 12.4 -4.2Z" stroke="#25323a" fill="none" stroke-width="5"></path></g><g transform="translate(377 6)"><path d="M11 -3.6C12.3 0.4 10 5.5 6 8.5C2 11.4 -3.7 12.2 -7.1 9.8C-10.4 7.3 -11.3 1.7 -9.8 -2.6C-8.2 -7 -4.1 -10 0.4 -10.1C4.9 -10.2 9.8 -7.5 11 -3.6Z" stroke="#25323a" fill="none" stroke-width="5"></path></g></g></svg>