<svg id="visual" viewBox="0 0 900 600" width="900" height="600" xmlns="http://www.w3.org/2000/svg" xmlns:xlink="http://www.w3.org/1999/xlink" version="1.1"><rect width="900" height="600" fill="#13252F"></rect><g><g transform="translate(393 221)"><path d="M24.6 -7.4C28.2 2.9 24.7 16.1 16.6 21.8C8.5 27.4 -4.3 25.4 -13.4 18.7C-22.6 12 -28.1 0.5 -25.3 -8.8C-22.5 -18.1 -11.2 -25.2 -0.3 -25.1C10.5 -25 21.1 -17.6 24.6 -7.4Z" fill="none" stroke="#25323a" stroke-width="5"></path></g><g transform="translate(455 111)"><path d="M11.1 -4.3C12.6 1 10.8 6.7 6.8 9.7C2.9 12.6 -3.3 12.8 -7.9 9.7C-12.5 6.6 -15.6 0.3 -14 -5.1C-12.4 -10.6 -6.2 -15.1 -0.7 -14.8C4.8 -14.6 9.6 -9.6 11.1 -4.3Z" stroke="#25323a" fill="none" stroke-width="5"></path></g><g transform="translate(891 165)"><path d="M21 -7.4C23.4 0.6 18.9 10.2 11.7 15.3C4.4 20.4 -5.6 20.9 -11.8 16.3C-18.1 11.8 -20.6 2.1 -18 -6.1C-15.5 -14.3 -7.7 -21.1 0.8 -21.4C9.3 -21.6 18.6 -15.3 21 -7.4Z" stroke="#25323a" fill="none" stroke-width="5"></path></g><g transform="translate(715 451)"><path d="M2.4 -0.8C2.7 0.2 2.3 1.5 1.5 2.1C0.6 2.8 -0.7 2.8 -1.7 2.2C-2.6 1.5 -3.2 0.1 -2.9 -0.9C-2.5 -1.9 -1.3 -2.6 -0.1 -2.6C1 -2.6 2 -1.8 2.4 -0.8Z" stroke="#25323a" fill="none" stroke-width="5"></path></g><g transform="translate(865 294)"><path d="M14.8 -4.5C17 1.9 15 9.9 9.6 14C4.3 18.1 -4.5 18.2 -10.3 14C-16.1 9.8 -19 1.4 -16.8 -5C-14.5 -11.4 -7.3 -15.8 -0.5 -15.6C6.3 -15.5 12.6 -10.8 14.8 -4.5Z" stroke="#25323a" fill="none" stroke-width="5"></path></g><g transform="translate(124 235)"><path d="M16.8 -5.2C19.3 2.1 17.1 11.3 11.1 15.7C5.1 20.2 -4.6 19.9 -10.8 15.3C-17.1 10.7 -19.9 1.6 -17.5 -5.6C-15.2 -12.8 -7.6 -18.3 -0.2 -18.2C7.2 -18.2 14.4 -12.6 16.8 -5.2Z" stroke="#25323a" fill="none" stroke-width="5"></path></g><g transform="translate(274 396)"><path d="M17.8 -4.9C20.6 3 18.9 13.3 12.7 17.9C6.4 22.5 -4.2 21.5 -11.1 16.3C-17.9 11 -21 1.6 -18.5 -5.7C-16 -13 -8 -18.3 -0.3 -18.2C7.5 -18.1 14.9 -12.7 17.8 -4.9Z" stroke="#25323a" fill="none" stroke-width="5"></path></g><g transform="translate(761 311)"><path d="M18 -5.8C20.8 2.9 19 13.2 12.6 18C6.3 22.7 -4.5 21.9 -11.5 16.7C-18.4 11.4 -21.5 1.7 -18.9 -6.6C-16.4 -14.9 -8.2 -21.8 -0.3 -21.7C7.6 -21.6 15.1 -14.5 18 -5.8Z" stroke="#25323a" fill="none" stroke-width="5"></path></g><g transform="translate(197 458)"><path d="M3 -1C3.5 0.3 3 1.9 2 2.7C1 3.4 -0.7 3.3 -1.8 2.5C-2.9 1.7 -3.5 0.2 -3.1 -1.1C-2.8 -2.4 -1.4 -3.5 0 -3.5C1.3 -3.4 2.6 -2.4 3 -1Z" stroke="#25323a" fill="none" stroke-width="5"></path></g><g transform="translate(632 129)"><path d="M18 -5.8C20.3 1.1 16.9 9.9 10.6 14.5C4.3 19 -5 19.3 -11.2 14.9C-17.4 10.5 -20.6 1.4 -18.2 -5.7C-15.8 -12.9 -7.9 -18 0 -18C7.9 -18 15.7 -12.8 18 -5.8Z" stroke="#25323a" fill="none" stroke-width="5"></path></g><g transform="translate(630 570)"><path d="M10.2 -3.3C11.5 0.5 9.5 5.4 5.9 7.9C2.4 10.4 -2.7 10.5 -5.9 8.2C-9 5.8 -10.3 1 -9 -2.8C-7.8 -6.7 -3.9 -9.5 0.3 -9.6C4.5 -9.7 9 -7.1 10.2 -3.3Z" stroke="#25323a" fill="none" stroke-width="5"></path></g><g transform="translate(539 373)"><path d="M9.1 -3.3C10.1 0.1 8 4.1 4.9 6.2C1.8 8.3 -2.3 8.5 -5.2 6.6C-8.1 4.6 -9.9 0.4 -8.8 -3.1C-7.7 -6.5 -3.9 -9.3 0.1 -9.4C4.1 -9.4 8.2 -6.7 9.1 -3.3Z" stroke="#25323a" fill="none" stroke-width="5"></path></g><g transform="translate(254 43)"><path d="M15 -5.1C16.9 1 14.2 8.5 9.3 11.8C4.3 15.2 -2.8 14.5 -7.9 10.8C-12.9 7.2 -15.8 0.6 -14.1 -5.3C-12.4 -11.1 -6.2 -16.2 0.2 -16.2C6.5 -16.3 13.1 -11.3 15 -5.1Z" stroke="#25323a" fill="none" stroke-width="5"></path></g><g transform="translate(41 167)"><path d="M21.1 -6.1C24 2 20.6 12.9 13.6 17.8C6.6 22.7 -4.1 21.6 -11.3 16.2C-18.4 10.9 -21.9 1.3 -19.4 -6.3C-17 -13.9 -8.5 -19.4 0.3 -19.6C9.1 -19.7 18.2 -14.3 21.1 -6.1Z" stroke="#25323a" fill="none" stroke-width="5"></path></g><g transform="translate(419 521)"><path d="M3.1 -1.1C3.4 0.2 2.8 1.6 1.8 2.4C0.7 3.1 -0.8 3.1 -1.9 2.4C-3 1.6 -3.6 0.1 -3.2 -1.2C-2.9 -2.5 -1.4 -3.6 0 -3.5C1.3 -3.5 2.7 -2.4 3.1 -1.1Z" stroke="#25323a" fill="none" stroke-width="5"></path></g><g transform="translate(868 40)"><path d="M16.3 -5.3C18.4 1.1 15.4 9.1 9.9 13C4.3 16.9 -3.8 16.7 -9.5 12.6C-15.2 8.6 -18.5 0.7 -16.5 -5.5C-14.5 -11.8 -7.3 -16.5 -0.1 -16.5C7.1 -16.5 14.2 -11.7 16.3 -5.3Z" stroke="#25323a" fill="none" stroke-width="5"></path></g><g transform="translate(704 104)"><path d="M10 -2.9C11.3 0.8 9.6 5.8 6 8.5C2.4 11.2 -3.1 11.5 -6.4 9C-9.6 6.6 -10.7 1.4 -9.2 -2.5C-7.8 -6.3 -3.9 -8.8 0.2 -8.9C4.3 -9 8.7 -6.6 10 -2.9Z" stroke="#25323a" fill="none" stroke-width="5"></path></g><g transform="translate(193 328)"><path d="M4.5 -1.5C5.2 0.7 4.7 3.2 3.1 4.5C1.5 5.7 -1.2 5.6 -3.1 4.2C-4.9 2.9 -5.9 0.3 -5.3 -1.8C-4.6 -3.9 -2.3 -5.5 -0.2 -5.4C1.9 -5.4 3.8 -3.6 4.5 -1.5Z" stroke="#25323a" fill="none" stroke-width="5"></path></g></g></svg>