<svg id="visual" viewBox="0 0 900 600" width="900" height="600" xmlns="http://www.w3.org/2000/svg" xmlns:xlink="http://www.w3.org/1999/xlink" version="1.1"><rect x="0" y="0" width="900" height="600" fill="#13252F"></rect><path d="M0 363L129 431L257 364L386 394L514 357L643 379L771 410L900 361L900 601L771 601L643 601L514 601L386 601L257 601L129 601L0 601Z" fill="#a1ff69"></path><path d="M0 396L129 434L257 458L386 443L514 463L643 432L771 469L900 404L900 601L771 601L643 601L514 601L386 601L257 601L129 601L0 601Z" fill="#8de55a"></path><path d="M0 504L129 508L257 439L386 469L514 457L643 510L771 457L900 450L900 601L771 601L643 601L514 601L386 601L257 601L129 601L0 601Z" fill="#7acb4b"></path><path d="M0 512L129 498L257 504L386 542L514 504L643 539L771 497L900 536L900 601L771 601L643 601L514 601L386 601L257 601L129 601L0 601Z" fill="#67b23c"></path><path d="M0 559L129 563L257 532L386 561L514 561L643 569L771 526L900 541L900 601L771 601L643 601L514 601L386 601L257 601L129 601L0 601Z" fill="#55992e"></path></svg>