<svg id="visual" viewBox="0 0 900 600" width="900" height="600" xmlns="http://www.w3.org/2000/svg" xmlns:xlink="http://www.w3.org/1999/xlink" version="1.1"><rect x="0" y="0" width="900" height="600" fill="#13252F"></rect><defs><linearGradient id="grad1_0" x1="33.3%" y1="0%" x2="100%" y2="100%"><stop offset="20%" stop-color="#13252f" stop-opacity="1"></stop><stop offset="80%" stop-color="#13252f" stop-opacity="1"></stop></linearGradient></defs><defs><linearGradient id="grad2_0" x1="0%" y1="0%" x2="66.7%" y2="100%"><stop offset="20%" stop-color="#13252f" stop-opacity="1"></stop><stop offset="80%" stop-color="#13252f" stop-opacity="1"></stop></linearGradient></defs><g transform="translate(900, 0)"><path d="M0 162.2C-15 162.8 -30.1 163.4 -42 156.7C-53.9 150.1 -62.6 136.2 -74 128.2C-85.4 120.2 -99.3 118.1 -111 111C-122.7 104 -132.1 92 -136.8 79C-141.5 66 -141.4 52.1 -144.9 38.8C-148.3 25.5 -155.3 12.7 -162.2 0L0 0Z" fill="#A1FF69"></path></g><g transform="translate(0, 600)"><path d="M0 -162.2C12.2 -153.2 24.5 -144.2 37.8 -141C51.1 -137.8 65.4 -140.5 79.5 -137.7C93.6 -134.9 107.3 -126.6 114.7 -114.7C122.1 -102.8 123.1 -87.3 129.9 -75C136.7 -62.7 149.2 -53.6 155.5 -41.7C161.9 -29.7 162.1 -14.9 162.2 0L0 0Z" fill="#A1FF69"></path></g></svg>