<svg id="visual" viewBox="0 0 900 600" width="900" height="600" xmlns="http://www.w3.org/2000/svg" xmlns:xlink="http://www.w3.org/1999/xlink" version="1.1"><rect x="0" y="0" width="900" height="600" fill="#13252F"></rect><path d="M0 100L39 99L78 101L117 90L157 90L196 83L235 72L274 59L313 76L352 78L391 93L430 66L470 103L509 79L548 81L587 100L626 96L665 75L704 68L743 95L783 60L822 69L861 87L900 95L900 0L861 0L822 0L783 0L743 0L704 0L665 0L626 0L587 0L548 0L509 0L470 0L430 0L391 0L352 0L313 0L274 0L235 0L196 0L157 0L117 0L78 0L39 0L0 0Z" fill="#4d7139"></path><path d="M0 87L39 81L78 87L117 76L157 70L196 64L235 85L274 56L313 65L352 51L391 56L430 55L470 64L509 78L548 60L587 68L626 62L665 73L704 71L743 81L783 72L822 73L861 59L900 55L900 0L861 0L822 0L783 0L743 0L704 0L665 0L626 0L587 0L548 0L509 0L470 0L430 0L391 0L352 0L313 0L274 0L235 0L196 0L157 0L117 0L78 0L39 0L0 0Z" fill="#588340"></path><path d="M0 60L39 39L78 48L117 43L157 42L196 63L235 64L274 57L313 54L352 50L391 67L430 72L470 37L509 53L548 53L587 42L626 51L665 42L704 38L743 53L783 67L822 42L861 39L900 65L900 0L861 0L822 0L783 0L743 0L704 0L665 0L626 0L587 0L548 0L509 0L470 0L430 0L391 0L352 0L313 0L274 0L235 0L196 0L157 0L117 0L78 0L39 0L0 0Z" fill="#639647"></path><path d="M0 57L39 41L78 27L117 28L157 32L196 37L235 55L274 49L313 41L352 52L391 51L430 48L470 32L509 42L548 35L587 29L626 41L665 41L704 34L743 41L783 46L822 45L861 48L900 52L900 0L861 0L822 0L783 0L743 0L704 0L665 0L626 0L587 0L548 0L509 0L470 0L430 0L391 0L352 0L313 0L274 0L235 0L196 0L157 0L117 0L78 0L39 0L0 0Z" fill="#6ea84e"></path><path d="M0 20L39 18L78 20L117 26L157 20L196 18L235 36L274 16L313 31L352 22L391 32L430 39L470 19L509 34L548 34L587 40L626 26L665 30L704 25L743 35L783 25L822 19L861 36L900 37L900 0L861 0L822 0L783 0L743 0L704 0L665 0L626 0L587 0L548 0L509 0L470 0L430 0L391 0L352 0L313 0L274 0L235 0L196 0L157 0L117 0L78 0L39 0L0 0Z" fill="#79bc55"></path><path d="M0 15L39 24L78 24L117 24L157 7L196 22L235 20L274 14L313 11L352 7L391 8L430 19L470 18L509 23L548 11L587 13L626 22L665 6L704 16L743 19L783 20L822 14L861 18L900 13L900 0L861 0L822 0L783 0L743 0L704 0L665 0L626 0L587 0L548 0L509 0L470 0L430 0L391 0L352 0L313 0L274 0L235 0L196 0L157 0L117 0L78 0L39 0L0 0Z" fill="#84cf5c"></path></svg>