<svg id="visual" viewBox="0 0 900 600" width="900" height="600" xmlns="http://www.w3.org/2000/svg" xmlns:xlink="http://www.w3.org/1999/xlink" version="1.1"><rect width="900" height="600" fill="#13252F"></rect><g><g transform="translate(718 371)"><path d="M73 -61.9C88.7 -38.5 91.5 -8.5 83.6 16.3C75.7 41.2 57.3 60.9 33.6 73.9C9.9 86.9 -19 93.2 -40.3 83.2C-61.7 73.1 -75.4 46.7 -77.6 22C-79.8 -2.7 -70.5 -25.7 -55.6 -48.9C-40.8 -72 -20.4 -95.2 4.1 -98.5C28.7 -101.8 57.3 -85.2 73 -61.9Z" stroke="#A1FF69" fill="none" stroke-width="20"></path></g><g transform="translate(288 429)"><path d="M72.6 -61.6C85.3 -42 80.6 -12.3 75 19.1C69.5 50.6 63 83.9 45.3 91.5C27.6 99.1 -1.4 81 -27.2 65.2C-53 49.4 -75.8 35.9 -88.1 11.6C-100.4 -12.7 -102.2 -47.8 -85.8 -68.2C-69.4 -88.6 -34.7 -94.3 -2.4 -92.4C30 -90.5 59.9 -81.1 72.6 -61.6Z" stroke="#A1FF69" fill="none" stroke-width="20"></path></g><g transform="translate(351 41)"><path d="M63.4 -45C81 -28.5 93.3 -2.2 90.2 24.2C87 50.6 68.4 77 45.5 84.2C22.5 91.3 -4.9 79.1 -25.7 64.7C-46.6 50.3 -61 33.8 -63.5 16.3C-66 -1.1 -56.6 -19.4 -44.1 -34.7C-31.5 -50 -15.7 -62.4 3.6 -65.3C22.9 -68.1 45.8 -61.5 63.4 -45Z" stroke="#A1FF69" fill="none" stroke-width="20"></path></g><g transform="translate(843 116)"><path d="M64.8 -47.9C82.6 -29.3 94.7 -2.5 90.3 22.1C85.9 46.8 65 69.1 39.8 80.3C14.7 91.5 -14.7 91.6 -35.6 79.4C-56.6 67.3 -69 42.9 -70.7 20.4C-72.5 -2.1 -63.5 -22.8 -49.9 -40.4C-36.3 -58 -18.2 -72.6 2.7 -74.7C23.5 -76.8 47 -66.5 64.8 -47.9Z" stroke="#A1FF69" fill="none" stroke-width="20"></path></g><g transform="translate(45 185)"><path d="M63.9 -51.3C77.5 -34 79.3 -7.7 74.3 18C69.2 43.6 57.2 68.8 36 81.7C14.7 94.6 -15.8 95.3 -37.8 83C-59.9 70.7 -73.5 45.3 -79.5 18.3C-85.5 -8.6 -83.8 -37.1 -69.3 -54.6C-54.8 -72.1 -27.4 -78.7 -1.1 -77.8C25.2 -76.9 50.4 -68.6 63.9 -51.3Z" stroke="#A1FF69" fill="none" stroke-width="20"></path></g></g></svg>