<svg xmlns="http://www.w3.org/2000/svg" width="1315.97" height="1315.97"><defs><style>.cls-1{fill:#4845ff}.cls-2{fill:#000068}.cls-3{fill:#fff}.cls-4{opacity:.35}.cls-5{fill:#ffb3f4}.cls-6{fill:#ff31cf}.cls-7{fill:#302e2f}.cls-8{fill:#4af4ef}.cls-9{opacity:.45}.cls-10{fill:#00f394}</style></defs><g id="Layer_2" data-name="Layer 2"><path class="cls-1" d="M1177.94 630.92c-22.24 65.19-69.35 118.86-93.79 183.25-12.91 34-17.42 70.65-28.89 105.16-21.22 63.8-67 119.08-125.69 151.83a275.07 275.07 0 01-195.22 27.19l20.38-34.52a844.05 844.05 0 00-184.23 8.86l-2 .31c-8.92 1.44-17.83 3-26.74 4.67-22.71 4.19-45.38 8.73-68.16 12.15-3 .46-5.94.88-8.91 1.29-9.06 1.24-18.13 2.27-27.23 3-.76.07-1.51.12-2.27.17h-.16l-1.25.09q-8.15.6-16.32.83c-4.54.12-9.09.15-13.66 0-34.27-.65-69-7.43-98.73-23.28-.85-.46-1.7-.92-2.54-1.39-.45-.25-.9-.5-1.34-.76q-2.75-1.56-5.43-3.23a147 147 0 01-20.67-15.54c-62.16-56.16-62.65-151.19-85.79-231.69-13.73-47.75-36.67-92.54-49.29-140.6s-13.57-102.64 14.17-143.85c21.38-31.76 56.61-51.16 83-78.87 57.12-59.91 68.86-153.53 128.67-210.74 58.66-56.1 149.24-63 229.38-50.13S752.91 237.26 834 241.77c38.54 2.14 77.45-1.36 115.61 4.42 62.93 9.52 121.47 45.26 158.7 96.87 13.04 18.14 117.01 149.06 69.63 287.86z"/><path class="cls-2" d="M541.81 1077.67c-22.71 4.19-45.38 8.73-68.16 12.15-3 .46-5.94.88-8.91 1.29-9.06 1.24-18.13 2.27-27.23 3-.76.07-1.51.12-2.27.17-7.09-29.89-16.72-74.4-19.8-84.39-3.2 9.47-8.69 58.66-11.59 85.37-34.27-.65-69-7.43-98.73-23.28-.85-.46-1.7-.92-2.54-1.39-.45-.25-.9-.5-1.34-.76q-2.75-1.56-5.43-3.23l6.32-73 4.43-68.31.85-13 9.86.82 1.79.15 167.84 14 29 114c-.33.07 16.01 22.57 25.91 36.41z"/><path class="cls-1" d="M312.3 995.86a18.84 18.84 0 0010.35 3.32 24.4 24.4 0 0010.84-2.41 33.08 33.08 0 008.95-6.29 30.93 30.93 0 006.34-8.69c-2.79 2.26-5.51 4.38-8.3 6.34a60 60 0 01-8.64 5.12 30.84 30.84 0 01-19.54 2.61z"/><path class="cls-3" d="M477 965.49a16.23 16.23 0 003.34 4.7 24 24 0 004.46 3.5A21.49 21.49 0 00490 976a14.07 14.07 0 005.79.46 55.58 55.58 0 00-4.54-3.25c-1.48-1-3-1.92-4.47-2.84s-3-1.79-4.65-2.62a36.3 36.3 0 00-5.13-2.26z"/><g class="cls-4"><circle class="cls-3" cx="897.18" cy="339.48" r="7.41"/></g><g class="cls-4"><circle class="cls-3" cx="227.36" cy="578.41" r="7.41"/></g><g class="cls-4"><circle class="cls-3" cx="994.2" cy="895.87" r="7.41"/></g><g class="cls-4"><circle class="cls-3" cx="322.27" cy="519.15" r="3.2"/></g><g class="cls-4"><circle class="cls-3" cx="433.52" cy="313.31" r="7.26"/></g><rect class="cls-2" x="555.23" y="406.09" width="420.23" height="743.99" rx="25.45" transform="rotate(-155.42 765.35 778.086)"/><path class="cls-2" d="M1100.42 528.86l-13.36-31.82-21.58 12.75 34.94 19.07z"/><path class="cls-1" d="M429.21 983.69a21.2 21.2 0 006.5 6.69 19.38 19.38 0 004.14 2.09l4.44 1.73c5.89 2.37 11.73 4.83 17.5 7.46s11.52 5.31 17.2 8.13 11.3 5.78 16.79 9c-6-2-11.95-4.36-17.81-6.79s-11.66-5-17.4-7.69-11.45-5.46-17.09-8.37l-4.21-2.22a25.71 25.71 0 01-4.14-2.57 20.31 20.31 0 01-5.92-7.46z"/><path class="cls-2" d="M1052.31 478.32l13.17 31.47-17.58 10.85-21.63-21.16 26.04-21.16M427.86 980.58l-9.79-23.33 13.93-4.67 12.32 12.31-16.46 15.69z"/><path class="cls-3" d="M462.22 567.23s16.73 11.92 3.35 24.47-23-23.84-23-23.84z"/><path class="cls-5" d="M386.85 604.38c-.84 20.08 25 45.89 45.3 49 21.83 3.38 32.87-17.17 36.26-39 2.14-20.52-3-42.6-31.51-49-21.83-3.38-42.29 3.36-50.05 39z"/><path class="cls-6" d="M430.66 616.2l.51.22c.32.15.77.41 1.39.73 1.19.67 2.87 1.68 5.15 2.82a18.35 18.35 0 006 1.85 21.63 21.63 0 006.67-.23 27.62 27.62 0 005.2-1.5 18.17 18.17 0 002-.91 16.54 16.54 0 01-1.8 1.31 25.48 25.48 0 01-5 2.48 20.35 20.35 0 01-7.24 1.28 16.59 16.59 0 01-7.11-1.69 11.61 11.61 0 01-4.88-4.38 7.92 7.92 0 01-.72-1.46 8.97 8.97 0 01-.17-.52z"/><path class="cls-7" d="M413.49 596.14a2.11 2.11 0 01-.16-.34 3.41 3.41 0 01-.22-1.09 4.89 4.89 0 01.28-1.82 6.49 6.49 0 011.36-2.16 12.89 12.89 0 013.74-2.64 21.65 21.65 0 014.27-1.5 24.78 24.78 0 014.77-.73 42.16 42.16 0 00-4.28 2.07 26.65 26.65 0 00-6.42 4.78c-1 1.08-1.79 1.84-2.37 2.46l-.7.71a1.93 1.93 0 01-.27.26z"/><path class="cls-8" d="M443.12 699.75a3.5 3.5 0 012 2 38.58 38.58 0 011.75 6.78 38.9 38.9 0 01-3.69-6 3.5 3.5 0 01-.06-2.78z"/><path class="cls-2" d="M459.93 587.1a5.3 5.3 0 01-1.05-.14 7 7 0 01-2.16-.81 28.93 28.93 0 00-7.62-3.28 14.53 14.53 0 013.21-.45 13.92 13.92 0 013 .21 8.68 8.68 0 012.87 1 3.58 3.58 0 011.74 2.31 2.49 2.49 0 01.01 1.16z"/><path class="cls-6" d="M447.88 630.05a2.22 2.22 0 01-.37.44 3.42 3.42 0 01-1.46.79 7 7 0 01-3.7 0 5.24 5.24 0 01-1.84-.85 5.89 5.89 0 001.91.37 10 10 0 003.35-.49 8.83 8.83 0 011.53-.31 2.25 2.25 0 01.58.05z"/><ellipse class="cls-2" cx="429.7" cy="602.52" rx="1.99" ry="5.4" transform="rotate(-12.81 429.708 602.498)"/><ellipse class="cls-2" cx="456.62" cy="598.07" rx="1.85" ry="5.03" transform="rotate(-16.22 456.49 597.939)"/><path class="cls-3" d="M418.87 780.51a60.73 60.73 0 01-1.41-6.53c-.37-2.13-.67-4.25-1-6.37l-.89-6.37c-.33-2.12-.7-4.21-1.07-6.5a16.7 16.7 0 013.69 5.78 28.32 28.32 0 011.7 6.58 33.14 33.14 0 01.24 6.75 23.68 23.68 0 01-1.26 6.66z"/><path class="cls-6" d="M297.37 783.83l-.56 152.61c13.71 35 106.2 54.77 173.12 19.17 0 0-7.74-98.65 3.58-171.17l37.81 28.88 37.84-74.91c-23.55-25.72-62.54-53.41-108.75-66.71l-.45-.14a202.59 202.59 0 00-49.65-7.87c-.82 0-1.63-.09-2.45-.05-91.05 3.76-90.49 120.19-90.49 120.19"/><path class="cls-5" d="M434.29 642.43l-8.85 40.73a14 14 0 01-19.83 9.57 14 14 0 01-7.34-16.11l13.5-51z"/><g class="cls-9"><path class="cls-3" d="M403.57 625.13c1.16 1.33 2.33 2.58 3.54 3.78s2.47 2.33 3.8 3.41a48.67 48.67 0 004.09 3c1.42.94 2.89 1.83 4.37 2.79-.43-.09-.85-.2-1.28-.32a10.77 10.77 0 01-1.26-.38l-1.23-.41a5.63 5.63 0 01-.61-.27l-.6-.29a23.35 23.35 0 01-4.45-2.91 24.25 24.25 0 01-3.72-3.79 17.26 17.26 0 01-2.65-4.61z"/></g><path class="cls-6" d="M443 584.38c.1 2.51.33 5 .62 7.47s.63 4.93 1 7.39c.78 4.9 1.73 9.78 2.88 14.62l1-1.15c-.8 0-1.6.16-2.39.28-.4.06-.8.14-1.2.22s-.8.19-1.2.32c.39.16.78.27 1.18.39s.78.21 1.18.3c.79.17 1.57.34 2.37.44l1.17.15-.18-1.31q-1-7.38-2.6-14.67c-.53-2.43-1.09-4.85-1.72-7.26s-1.27-4.81-2.11-7.19z"/><path class="cls-3" d="M399.51 598.51a19.24 19.24 0 01-1.07 9.7 10.38 10.38 0 01-7.16 6.23 4.6 4.6 0 01-3.36-.45 5.13 5.13 0 01-1.64-2.09 13.51 13.51 0 01-.77-9.7 4.82 4.82 0 00.35-2.1 4.4 4.4 0 00-1.38-2.1 21.51 21.51 0 01-5.59-18.82 18 18 0 0115.89-14.11c.71-.07-.25-17.74 12.35-19.87 9.79-1.66 11.75 4.51 12.14 7.81.49 0 9.81-6.8 19-7.72 3.12-.32 6.16-.35 8.82 1.31s3.66 6.06 1.1 7.86c4.79-1.29 9.64-2.59 14.6-2.59s10.12 1.44 13.61 5c1.48 1.48 2.67 3.51 2.33 5.57-.41 2.43-2.74 4-5 5.09a34.9 34.9 0 01-21 2.79c1.54 2 3.16 4.54 2.27 6.92-.75 2-3 2.95-5 3.51a32.46 32.46 0 01-18.17-.31c1.95 5-1.52 10.49-5.78 13.69-4.43 3.32-13.09 6.78-26.5 4.43"/><ellipse class="cls-5" cx="386.58" cy="608.81" rx="9.31" ry="8.06" transform="rotate(-87.62 386.602 608.813)"/><path class="cls-6" d="M387.85 605.61a9.17 9.17 0 00-2.47 1.71 2.14 2.14 0 00-.49 2.1 1.54 1.54 0 00.16.47 1.27 1.27 0 00.27.34 3.13 3.13 0 001 .56 28.93 28.93 0 003 .67 5.53 5.53 0 01-1.56.67 5.14 5.14 0 01-1.74.18 3.55 3.55 0 01-1.89-.62 2.65 2.65 0 01-.78-.85 3 3 0 01-.37-1 3.68 3.68 0 01.14-2.05 3.3 3.3 0 011.28-1.53 4.44 4.44 0 011.69-.63 4.8 4.8 0 011.76-.02z"/><path class="cls-3" d="M455.36 715.41a93.8 93.8 0 013.32 10.1c.91 3.39 1.68 6.81 2.27 10.26.16.86.26 1.73.4 2.59l.21 1.3.15 1.3.32 2.61.23 2.63.13 1.32c.05.44 0 .88.08 1.32l.18 2.65c.13 1.78.12 3.56.31 5.37.43-1.75.81-3.52 1.08-5.31s.45-3.6.44-5.41v-2.72l-.14-2.72c0-.45-.06-.91-.1-1.36l-.16-1.35c-.13-.9-.22-1.81-.38-2.7a52.28 52.28 0 00-3-10.49 34.89 34.89 0 00-5.34-9.39zM405.48 823.92a42.63 42.63 0 00-7.17 9.13 52.66 52.66 0 00-4.88 10.62 46 46 0 00-2.21 11.5 36 36 0 001.08 11.57 72.61 72.61 0 01.77-11.38 69.83 69.83 0 012.63-11 86.69 86.69 0 014.24-10.48 105.74 105.74 0 015.54-9.96z"/><g class="cls-4"><circle class="cls-3" cx="1077.07" cy="407.78" r="3.2"/></g><g class="cls-4"><circle class="cls-3" cx="580.34" cy="354" r="3.2"/></g><g class="cls-4"><circle class="cls-3" cx="1123.33" cy="608.48" r="3.2"/></g><rect class="cls-3" x="540.72" y="371.43" width="420.23" height="743.99" rx="25.45" transform="rotate(-155.42 750.843 743.422)"/><path class="cls-2" d="M508.81 909.88l270.25 123.61a28.28 28.28 0 0037.48-14l201.4-439.12a28.27 28.27 0 00-14-37.48l-270.2-123.56a28.29 28.29 0 00-37.49 13.95L494.86 872.4a28.28 28.28 0 0013.95 37.48z"/><path class="cls-10" d="M565.6 880l199.23 91.1a20.86 20.86 0 0027.64-10.29l11-23.95a20.86 20.86 0 00-10.29-27.64l-199.25-91.13a20.86 20.86 0 00-27.64 10.29l-11 24A20.86 20.86 0 00565.6 880z"/><path class="cls-3" d="M611.9 783.63l199.23 91.13a20.86 20.86 0 0027.64-10.29l4.54-10.56A20.85 20.85 0 00833 826.28l-199.21-91.13a20.85 20.85 0 00-27.63 10.29L601.61 756a20.86 20.86 0 0010.29 27.63z"/><path class="cls-5" d="M602 841c-106.77 51.28-203.89 34.69-242.77 16-42.19-20.29-63.26-50.55-65.52-53.93l47.54-31.8-.13-.2c.14.22 14.94 23 45.17 35.45 87.8 36.19 166.36-9.37 208.27-21.72"/><path class="cls-3" d="M645.64 710.2l199.23 91.13A20.85 20.85 0 00872.51 791l4.54-10.55a20.86 20.86 0 00-10.29-27.64l-199.23-91.09A20.85 20.85 0 00639.9 672l-4.55 10.56a20.85 20.85 0 0010.29 27.64zM679.38 636.78l199.23 91.13a20.86 20.86 0 0027.64-10.29l4.54-10.56a20.85 20.85 0 00-10.29-27.63L701.27 588.3a20.85 20.85 0 00-27.63 10.29l-4.55 10.55a20.86 20.86 0 0010.29 27.64zM713.12 563.35l199.23 91.13A20.85 20.85 0 00940 644.19l4.54-10.55a20.85 20.85 0 00-10.3-27.64L735 514.87a20.85 20.85 0 00-27.63 10.29l-4.55 10.56a20.85 20.85 0 0010.3 27.63z"/><circle class="cls-2" cx="924.56" cy="462.04" r="7.92"/><circle class="cls-2" cx="613.15" cy="1023.85" r="19.96"/><path class="cls-2" d="M893.26 453.72a2.78 2.78 0 001.15-5.31l-56.55-25.74a2.78 2.78 0 00-2.31 5.06l56.56 25.73a2.79 2.79 0 001.15.26z"/><path class="cls-1" d="M447.6 1043.29a72.4 72.4 0 018.94 2.77c2.92 1.06 5.78 2.25 8.6 3.52s5.6 2.64 8.33 4.13a73.33 73.33 0 018 4.9 74.26 74.26 0 01-8.95-2.76c-2.92-1.06-5.77-2.26-8.6-3.53s-5.6-2.64-8.32-4.14a73.85 73.85 0 01-8-4.89z"/><path class="cls-6" d="M322.38 866.74c-40.78-58.37-45.2-112.93-28.15-147.29 24.67-49.73 82.79-55.81 93.63-55.81l6.79 73.54h.26c-11.58 1-30.56 6.91-34.57 15.16-3.12 6.39 5.48 28.19 30.45 44.57z"/><path class="cls-5" d="M387.59 667.37a26.59 26.59 0 0052.82 4.33l-.45-.14a202.59 202.59 0 00-49.65-7.87c-.82 0-1.63 0-2.45-.05a27 27 0 00-.27 3.73z"/><path class="cls-3" d="M356 750.72c3.73 6 6.84 12.12 10.19 18.09 1.67 3 3.31 6 5.12 8.85a90.39 90.39 0 005.86 8.51 28.84 28.84 0 01-8.07-6.89 53.78 53.78 0 01-5.95-8.78 70.79 70.79 0 01-4.4-9.57 53.65 53.65 0 01-2.75-10.21z"/><path class="cls-5" d="M613.71 794.34c1.29-.51 2.58-1 3.87-1.6 7.67-3.34 15-7.62 17.25-12.36a6.44 6.44 0 00.66-3.31v-.47c-.54-3.58-4-3.93-8.67-2.72-10.4 2.69-31 10.13-36 12.22-6.6 2.41 8.79 7.75 8.79 7.75 1.95 2.59 11.39-1.08 14.1.49z"/><path class="cls-5" d="M600.45 815.49c1.55-.61 3.11-1.25 4.66-1.93 9.22-4 18.07-9.16 20.75-14.86a7.91 7.91 0 00.79-4 5.54 5.54 0 00-.07-.57c-.63-4.29-4.78-4.73-10.42-3.27-12.51 3.24-15.59-4.2-20.88-3.82-7.81.54-11.82 27.86-11.82 27.86 2.4 3.1 13.78-1.3 16.99.59z"/><path class="cls-5" d="M601.77 830.22c1.77-.69 3.56-1.43 5.32-2.2 10.53-4.59 20.65-10.48 23.69-17a8.91 8.91 0 00.91-4.54 6.41 6.41 0 00-.08-.65c-.73-4.92-5.45-5.41-11.89-3.74-14.29 3.7-37 18.06-43.07 18.48-8.92.62 5.71 8.95 5.71 8.95 2.76 3.6 15.74-1.45 19.41.7z"/><path class="cls-5" d="M588.65 847.36c1.76-.72 3.54-1.48 5.3-2.27 10.47-4.7 37.78-14.45 40.77-21a8.91 8.91 0 00.86-4.55c0-.22-.05-.43-.09-.64-.78-4.91-5.51-5.35-11.93-3.6-14.25 3.85-36.8 18.47-42.86 19-8.92.73 5.82 8.89 5.82 8.89 2.8 3.49-1.52 2.05 2.13 4.17zM608.12 783.9s-24-11.67-27.86 12.58c-2.2 13.73 27.86-12.58 27.86-12.58z"/><path class="cls-1" d="M1177.94 630.92c-22.24 65.19-69.35 118.86-93.79 183.25-12.91 34-17.42 70.65-28.89 105.16-21.22 63.8-67 119.08-125.69 151.83a275.07 275.07 0 01-195.22 27.19l20.38-34.52a844.05 844.05 0 00-184.23 8.86l-2 .31c-8.92 1.44-17.83 3-26.74 4.67-22.71 4.19-45.38 8.73-68.16 12.15-3 .46-5.94.88-8.91 1.29-9.06 1.24-18.13 2.27-27.23 3-.76.07-1.51.12-2.27.17h-.16l-1.25.09q-8.15.6-16.32.83c-4.54.12-9.09.15-13.66 0-34.27-.65-69-7.43-98.73-23.28-.85-.46-1.7-.92-2.54-1.39-.45-.25-.9-.5-1.34-.76q-2.75-1.56-5.43-3.23a147 147 0 01-20.67-15.54c-62.16-56.16-62.65-151.19-85.79-231.69-13.73-47.75-36.67-92.54-49.29-140.6s-13.57-102.64 14.17-143.85c21.38-31.76 56.61-51.16 83-78.87 57.12-59.91 68.86-153.53 128.67-210.74 58.66-56.1 149.24-63 229.38-50.13S752.91 237.26 834 241.77c38.54 2.14 77.45-1.36 115.61 4.42 62.93 9.52 121.47 45.26 158.7 96.87 13.04 18.14 117.01 149.06 69.63 287.86z"/><path class="cls-2" d="M541.81 1077.67c-22.71 4.19-45.38 8.73-68.16 12.15-3 .46-5.94.88-8.91 1.29-9.06 1.24-18.13 2.27-27.23 3-.76.07-1.51.12-2.27.17-7.09-29.89-16.72-74.4-19.8-84.39-3.2 9.47-8.69 58.66-11.59 85.37-34.27-.65-69-7.43-98.73-23.28-.85-.46-1.7-.92-2.54-1.39-.45-.25-.9-.5-1.34-.76q-2.75-1.56-5.43-3.23l6.32-73 4.43-68.31.85-13 9.86.82 1.79.15 167.84 14 29 114c-.33.07 16.01 22.57 25.91 36.41z"/><path class="cls-1" d="M312.3 995.86a18.84 18.84 0 0010.35 3.32 24.4 24.4 0 0010.84-2.41 33.08 33.08 0 008.95-6.29 30.93 30.93 0 006.34-8.69c-2.79 2.26-5.51 4.38-8.3 6.34a60 60 0 01-8.64 5.12 30.84 30.84 0 01-19.54 2.61z"/><path class="cls-3" d="M477 965.49a16.23 16.23 0 003.34 4.7 24 24 0 004.46 3.5A21.49 21.49 0 00490 976a14.07 14.07 0 005.79.46 55.58 55.58 0 00-4.54-3.25c-1.48-1-3-1.92-4.47-2.84s-3-1.79-4.65-2.62a36.3 36.3 0 00-5.13-2.26z"/><g class="cls-4"><circle class="cls-3" cx="897.18" cy="339.48" r="7.41"/></g><g class="cls-4"><circle class="cls-3" cx="227.36" cy="646.39" r="7.41"/></g><g class="cls-4"><circle class="cls-3" cx="994.2" cy="895.87" r="7.41"/></g><g class="cls-4"><circle class="cls-3" cx="322.27" cy="519.15" r="3.2"/></g><g class="cls-4"><circle class="cls-3" cx="433.52" cy="313.31" r="7.26"/></g><rect class="cls-2" x="555.23" y="406.09" width="420.23" height="743.99" rx="25.45" transform="rotate(-155.42 765.35 778.086)"/><path class="cls-2" d="M1100.42 528.86l-13.36-31.82-21.58 12.75 34.94 19.07z"/><path class="cls-1" d="M429.21 983.69a21.2 21.2 0 006.5 6.69 19.38 19.38 0 004.14 2.09l4.44 1.73c5.89 2.37 11.73 4.83 17.5 7.46s11.52 5.31 17.2 8.13 11.3 5.78 16.79 9c-6-2-11.95-4.36-17.81-6.79s-11.66-5-17.4-7.69-11.45-5.46-17.09-8.37l-4.21-2.22a25.71 25.71 0 01-4.14-2.57 20.31 20.31 0 01-5.92-7.46z"/><path class="cls-2" d="M1052.31 478.32l13.17 31.47-17.58 10.85-21.63-21.16 26.04-21.16M427.86 980.58l-9.79-23.33 13.93-4.67 12.32 12.31-16.46 15.69z"/><path class="cls-3" d="M462.22 567.23s16.73 11.92 3.35 24.47-23-23.84-23-23.84z"/><path class="cls-5" d="M386.85 604.38c-.84 20.08 25 45.89 45.3 49 21.83 3.38 32.87-17.17 36.26-39 2.14-20.52-3-42.6-31.51-49-21.83-3.38-42.29 3.36-50.05 39z"/><path class="cls-6" d="M430.66 616.2l.51.22c.32.15.77.41 1.39.73 1.19.67 2.87 1.68 5.15 2.82a18.35 18.35 0 006 1.85 21.63 21.63 0 006.67-.23 27.62 27.62 0 005.2-1.5 18.17 18.17 0 002-.91 16.54 16.54 0 01-1.8 1.31 25.48 25.48 0 01-5 2.48 20.35 20.35 0 01-7.24 1.28 16.59 16.59 0 01-7.11-1.69 11.61 11.61 0 01-4.88-4.38 7.92 7.92 0 01-.72-1.46 8.97 8.97 0 01-.17-.52z"/><path class="cls-7" d="M413.49 596.14a2.11 2.11 0 01-.16-.34 3.41 3.41 0 01-.22-1.09 4.89 4.89 0 01.28-1.82 6.49 6.49 0 011.36-2.16 12.89 12.89 0 013.74-2.64 21.65 21.65 0 014.27-1.5 24.78 24.78 0 014.77-.73 42.16 42.16 0 00-4.28 2.07 26.65 26.65 0 00-6.42 4.78c-1 1.08-1.79 1.84-2.37 2.46l-.7.71a1.93 1.93 0 01-.27.26z"/><path class="cls-8" d="M443.12 699.75a3.5 3.5 0 012 2 38.58 38.58 0 011.75 6.78 38.9 38.9 0 01-3.69-6 3.5 3.5 0 01-.06-2.78z"/><path class="cls-2" d="M459.93 587.1a5.3 5.3 0 01-1.05-.14 7 7 0 01-2.16-.81 28.93 28.93 0 00-7.62-3.28 14.53 14.53 0 013.21-.45 13.92 13.92 0 013 .21 8.68 8.68 0 012.87 1 3.58 3.58 0 011.74 2.31 2.49 2.49 0 01.01 1.16z"/><path class="cls-6" d="M447.88 630.05a2.22 2.22 0 01-.37.44 3.42 3.42 0 01-1.46.79 7 7 0 01-3.7 0 5.24 5.24 0 01-1.84-.85 5.89 5.89 0 001.91.37 10 10 0 003.35-.49 8.83 8.83 0 011.53-.31 2.25 2.25 0 01.58.05z"/><ellipse class="cls-2" cx="429.7" cy="602.52" rx="1.99" ry="5.4" transform="rotate(-12.81 429.708 602.498)"/><ellipse class="cls-2" cx="456.62" cy="598.07" rx="1.85" ry="5.03" transform="rotate(-16.22 456.49 597.939)"/><path class="cls-3" d="M418.87 780.51a60.73 60.73 0 01-1.41-6.53c-.37-2.13-.67-4.25-1-6.37l-.89-6.37c-.33-2.12-.7-4.21-1.07-6.5a16.7 16.7 0 013.69 5.78 28.32 28.32 0 011.7 6.58 33.14 33.14 0 01.24 6.75 23.68 23.68 0 01-1.26 6.66z"/><path class="cls-6" d="M297.37 783.83l-.56 152.61c13.71 35 106.2 54.77 173.12 19.17 0 0-7.74-98.65 3.58-171.17l37.81 28.88 37.84-74.91c-23.55-25.72-62.54-53.41-108.75-66.71l-.45-.14a202.59 202.59 0 00-49.65-7.87c-.82 0-1.63-.09-2.45-.05-91.05 3.76-90.49 120.19-90.49 120.19"/><path class="cls-5" d="M434.29 642.43l-8.85 40.73a14 14 0 01-19.83 9.57 14 14 0 01-7.34-16.11l13.5-51z"/><g class="cls-9"><path class="cls-3" d="M403.57 625.13c1.16 1.33 2.33 2.58 3.54 3.78s2.47 2.33 3.8 3.41a48.67 48.67 0 004.09 3c1.42.94 2.89 1.83 4.37 2.79-.43-.09-.85-.2-1.28-.32a10.77 10.77 0 01-1.26-.38l-1.23-.41a5.63 5.63 0 01-.61-.27l-.6-.29a23.35 23.35 0 01-4.45-2.91 24.25 24.25 0 01-3.72-3.79 17.26 17.26 0 01-2.65-4.61z"/></g><path class="cls-6" d="M443 584.38c.1 2.51.33 5 .62 7.47s.63 4.93 1 7.39c.78 4.9 1.73 9.78 2.88 14.62l1-1.15c-.8 0-1.6.16-2.39.28-.4.06-.8.14-1.2.22s-.8.19-1.2.32c.39.16.78.27 1.18.39s.78.21 1.18.3c.79.17 1.57.34 2.37.44l1.17.15-.18-1.31q-1-7.38-2.6-14.67c-.53-2.43-1.09-4.85-1.72-7.26s-1.27-4.81-2.11-7.19z"/><path class="cls-3" d="M399.51 598.51a19.24 19.24 0 01-1.07 9.7 10.38 10.38 0 01-7.16 6.23 4.6 4.6 0 01-3.36-.45 5.13 5.13 0 01-1.64-2.09 13.51 13.51 0 01-.77-9.7 4.82 4.82 0 00.35-2.1 4.4 4.4 0 00-1.38-2.1 21.51 21.51 0 01-5.59-18.82 18 18 0 0115.89-14.11c.71-.07-.25-17.74 12.35-19.87 9.79-1.66 11.75 4.51 12.14 7.81.49 0 9.81-6.8 19-7.72 3.12-.32 6.16-.35 8.82 1.31s3.66 6.06 1.1 7.86c4.79-1.29 9.64-2.59 14.6-2.59s10.12 1.44 13.61 5c1.48 1.48 2.67 3.51 2.33 5.57-.41 2.43-2.74 4-5 5.09a34.9 34.9 0 01-21 2.79c1.54 2 3.16 4.54 2.27 6.92-.75 2-3 2.95-5 3.51a32.46 32.46 0 01-18.17-.31c1.95 5-1.52 10.49-5.78 13.69-4.43 3.32-13.09 6.78-26.5 4.43"/><ellipse class="cls-5" cx="386.58" cy="608.81" rx="9.31" ry="8.06" transform="rotate(-87.62 386.602 608.813)"/><path class="cls-6" d="M387.85 605.61a9.17 9.17 0 00-2.47 1.71 2.14 2.14 0 00-.49 2.1 1.54 1.54 0 00.16.47 1.27 1.27 0 00.27.34 3.13 3.13 0 001 .56 28.93 28.93 0 003 .67 5.53 5.53 0 01-1.56.67 5.14 5.14 0 01-1.74.18 3.55 3.55 0 01-1.89-.62 2.65 2.65 0 01-.78-.85 3 3 0 01-.37-1 3.68 3.68 0 01.14-2.05 3.3 3.3 0 011.28-1.53 4.44 4.44 0 011.69-.63 4.8 4.8 0 011.76-.02z"/><path class="cls-3" d="M455.36 715.41a93.8 93.8 0 013.32 10.1c.91 3.39 1.68 6.81 2.27 10.26.16.86.26 1.73.4 2.59l.21 1.3.15 1.3.32 2.61.23 2.63.13 1.32c.05.44 0 .88.08 1.32l.18 2.65c.13 1.78.12 3.56.31 5.37.43-1.75.81-3.52 1.08-5.31s.45-3.6.44-5.41v-2.72l-.14-2.72c0-.45-.06-.91-.1-1.36l-.16-1.35c-.13-.9-.22-1.81-.38-2.7a52.28 52.28 0 00-3-10.49 34.89 34.89 0 00-5.34-9.39zM405.48 823.92a42.63 42.63 0 00-7.17 9.13 52.66 52.66 0 00-4.88 10.62 46 46 0 00-2.21 11.5 36 36 0 001.08 11.57 72.61 72.61 0 01.77-11.38 69.83 69.83 0 012.63-11 86.69 86.69 0 014.24-10.48 105.74 105.74 0 015.54-9.96z"/><g class="cls-4"><circle class="cls-3" cx="1077.07" cy="407.78" r="3.2"/></g><g class="cls-4"><circle class="cls-3" cx="580.34" cy="354" r="3.2"/></g><g class="cls-4"><circle class="cls-3" cx="1123.33" cy="608.48" r="3.2"/></g><rect class="cls-3" x="540.72" y="371.43" width="420.23" height="743.99" rx="25.45" transform="rotate(-155.42 750.843 743.422)"/><path class="cls-2" d="M508.81 909.88l270.25 123.61a28.28 28.28 0 0037.48-14l201.4-439.12a28.27 28.27 0 00-14-37.48l-270.2-123.56a28.29 28.29 0 00-37.49 13.95L494.86 872.4a28.28 28.28 0 0013.95 37.48z"/><path class="cls-10" d="M565.6 880l199.23 91.1a20.86 20.86 0 0027.64-10.29l11-23.95a20.86 20.86 0 00-10.29-27.64l-199.25-91.13a20.86 20.86 0 00-27.64 10.29l-11 24A20.86 20.86 0 00565.6 880z"/><path class="cls-3" d="M611.9 783.63l199.23 91.13a20.86 20.86 0 0027.64-10.29l4.54-10.56A20.85 20.85 0 00833 826.28l-199.21-91.13a20.85 20.85 0 00-27.63 10.29L601.61 756a20.86 20.86 0 0010.29 27.63z"/><path class="cls-5" d="M602 841c-106.77 51.28-203.89 34.69-242.77 16-42.19-20.29-63.26-50.55-65.52-53.93l47.54-31.8-.13-.2c.14.22 14.94 23 45.17 35.45 87.8 36.19 166.36-9.37 208.27-21.72"/><path class="cls-3" d="M645.64 710.2l199.23 91.13A20.85 20.85 0 00872.51 791l4.54-10.55a20.86 20.86 0 00-10.29-27.64l-199.23-91.09A20.85 20.85 0 00639.9 672l-4.55 10.56a20.85 20.85 0 0010.29 27.64zM679.38 636.78l199.23 91.13a20.86 20.86 0 0027.64-10.29l4.54-10.56a20.85 20.85 0 00-10.29-27.63L701.27 588.3a20.85 20.85 0 00-27.63 10.29l-4.55 10.55a20.86 20.86 0 0010.29 27.64zM713.12 563.35l199.23 91.13A20.85 20.85 0 00940 644.19l4.54-10.55a20.85 20.85 0 00-10.3-27.64L735 514.87a20.85 20.85 0 00-27.63 10.29l-4.55 10.56a20.85 20.85 0 0010.3 27.63z"/><circle class="cls-2" cx="924.56" cy="462.04" r="7.92"/><circle class="cls-2" cx="613.15" cy="1023.85" r="19.96"/><path class="cls-2" d="M893.26 453.72a2.78 2.78 0 001.15-5.31l-56.55-25.74a2.78 2.78 0 00-2.31 5.06l56.56 25.73a2.79 2.79 0 001.15.26z"/><path class="cls-1" d="M447.6 1043.29a72.4 72.4 0 018.94 2.77c2.92 1.06 5.78 2.25 8.6 3.52s5.6 2.64 8.33 4.13a73.33 73.33 0 018 4.9 74.26 74.26 0 01-8.95-2.76c-2.92-1.06-5.77-2.26-8.6-3.53s-5.6-2.64-8.32-4.14a73.85 73.85 0 01-8-4.89z"/><path class="cls-6" d="M322.38 866.74c-40.78-58.37-45.2-112.93-28.15-147.29 24.67-49.73 82.79-55.81 93.63-55.81l6.79 73.54h.26c-11.58 1-30.56 6.91-34.57 15.16-3.12 6.39 5.48 28.19 30.45 44.57z"/><path class="cls-5" d="M387.59 667.37a26.59 26.59 0 0052.82 4.33l-.45-.14a202.59 202.59 0 00-49.65-7.87c-.82 0-1.63 0-2.45-.05a27 27 0 00-.27 3.73z"/><path class="cls-3" d="M356 750.72c3.73 6 6.84 12.12 10.19 18.09 1.67 3 3.31 6 5.12 8.85a90.39 90.39 0 005.86 8.51 28.84 28.84 0 01-8.07-6.89 53.78 53.78 0 01-5.95-8.78 70.79 70.79 0 01-4.4-9.57 53.65 53.65 0 01-2.75-10.21z"/><path class="cls-5" d="M613.71 794.34c1.29-.51 2.58-1 3.87-1.6 7.67-3.34 15-7.62 17.25-12.36a6.44 6.44 0 00.66-3.31v-.47c-.54-3.58-4-3.93-8.67-2.72-10.4 2.69-31 10.13-36 12.22-6.6 2.41 8.79 7.75 8.79 7.75 1.95 2.59 11.39-1.08 14.1.49z"/><path class="cls-5" d="M600.45 815.49c1.55-.61 3.11-1.25 4.66-1.93 9.22-4 18.07-9.16 20.75-14.86a7.91 7.91 0 00.79-4 5.54 5.54 0 00-.07-.57c-.63-4.29-4.78-4.73-10.42-3.27-12.51 3.24-15.59-4.2-20.88-3.82-7.81.54-11.82 27.86-11.82 27.86 2.4 3.1 13.78-1.3 16.99.59z"/><path class="cls-5" d="M601.77 830.22c1.77-.69 3.56-1.43 5.32-2.2 10.53-4.59 20.65-10.48 23.69-17a8.91 8.91 0 00.91-4.54 6.41 6.41 0 00-.08-.65c-.73-4.92-5.45-5.41-11.89-3.74-14.29 3.7-37 18.06-43.07 18.48-8.92.62 5.71 8.95 5.71 8.95 2.76 3.6 15.74-1.45 19.41.7z"/><path class="cls-5" d="M588.65 847.36c1.76-.72 3.54-1.48 5.3-2.27 10.47-4.7 37.78-14.45 40.77-21a8.91 8.91 0 00.86-4.55c0-.22-.05-.43-.09-.64-.78-4.91-5.51-5.35-11.93-3.6-14.25 3.85-36.8 18.47-42.86 19-8.92.73 5.82 8.89 5.82 8.89 2.8 3.49-1.52 2.05 2.13 4.17zM608.12 783.9s-24-11.67-27.86 12.58c-2.2 13.73 27.86-12.58 27.86-12.58z"/></g></svg>